<svg xmlns="http://www.w3.org/2000/svg" xmlns:xlink="http://www.w3.org/1999/xlink" width="500" zoomAndPan="magnify" viewBox="0 0 375 374.999991" height="500" preserveAspectRatio="xMidYMid meet" version="1.0"><defs><g/></defs><g fill="#25632d" fill-opacity="1"><g transform="translate(13.286192, 200.858615)"><g><path d="M 3.671875 -50.453125 L 18.28125 -50.453125 C 25.289062 -50.453125 31.285156 -48.054688 36.265625 -43.265625 C 41.242188 -38.472656 43.734375 -32.46875 43.734375 -25.25 C 43.734375 -18 41.253906 -11.976562 36.296875 -7.1875 C 31.335938 -2.394531 25.332031 0 18.28125 0 L 3.671875 0 Z M 15.171875 -10.28125 L 16.9375 -10.28125 C 21.132812 -10.28125 24.566406 -11.695312 27.234375 -14.53125 C 29.910156 -17.363281 31.269531 -20.921875 31.3125 -25.203125 C 31.3125 -29.484375 29.972656 -33.046875 27.296875 -35.890625 C 24.628906 -38.742188 21.175781 -40.171875 16.9375 -40.171875 L 15.171875 -40.171875 Z M 15.171875 -10.28125 "/></g></g></g><g fill="#25632d" fill-opacity="1"><g transform="translate(55.355753, 200.858615)"><g><path d="M 5.5 -49.5 C 6.726562 -50.75 8.21875 -51.375 9.96875 -51.375 C 11.71875 -51.375 13.222656 -50.738281 14.484375 -49.46875 C 15.753906 -48.207031 16.390625 -46.703125 16.390625 -44.953125 C 16.390625 -39.566406 13.289062 -34.285156 7.09375 -29.109375 L 4.21875 -31.375 C 4.46875 -31.613281 4.785156 -31.945312 5.171875 -32.375 C 5.554688 -32.8125 6.132812 -33.710938 6.90625 -35.078125 C 7.6875 -36.441406 8.195312 -37.816406 8.4375 -39.203125 C 7.050781 -39.523438 5.910156 -40.21875 5.015625 -41.28125 C 4.117188 -42.34375 3.671875 -43.566406 3.671875 -44.953125 C 3.671875 -46.742188 4.28125 -48.257812 5.5 -49.5 Z M 5.5 -49.5 "/></g></g></g><g fill="#25632d" fill-opacity="1"><g transform="translate(70.091948, 200.858615)"><g><path d="M 32.84375 -50.453125 L 32.84375 -40.359375 L 15.171875 -40.359375 L 15.171875 -30.328125 L 31.5 -30.328125 L 31.5 -20.25 L 15.171875 -20.25 L 15.171875 0 L 3.671875 0 L 3.671875 -50.453125 Z M 32.84375 -50.453125 "/></g></g></g><g fill="#25632d" fill-opacity="1"><g transform="translate(101.705123, 200.858615)"><g><path d="M 6.625 -3.71875 C 3.144531 -6.820312 1.40625 -10.800781 1.40625 -15.65625 C 1.40625 -20.507812 3.21875 -24.492188 6.84375 -27.609375 C 10.476562 -30.734375 14.960938 -32.296875 20.296875 -32.296875 C 25.554688 -32.296875 29.988281 -30.722656 33.59375 -27.578125 C 37.207031 -24.441406 39.015625 -20.46875 39.015625 -15.65625 C 39.015625 -10.84375 37.25 -6.875 33.71875 -3.75 C 30.195312 -0.632812 25.722656 0.921875 20.296875 0.921875 C 14.671875 0.921875 10.113281 -0.625 6.625 -3.71875 Z M 15.015625 -20.96875 C 13.609375 -19.582031 12.90625 -17.8125 12.90625 -15.65625 C 12.90625 -13.5 13.578125 -11.734375 14.921875 -10.359375 C 16.265625 -8.992188 18.039062 -8.3125 20.25 -8.3125 C 22.363281 -8.3125 24.101562 -9.003906 25.46875 -10.390625 C 26.832031 -11.773438 27.515625 -13.53125 27.515625 -15.65625 C 27.515625 -17.8125 26.8125 -19.582031 25.40625 -20.96875 C 24 -22.363281 22.28125 -23.0625 20.25 -23.0625 C 18.164062 -23.0625 16.421875 -22.363281 15.015625 -20.96875 Z M 15.015625 -20.96875 "/></g></g></g><g fill="#25632d" fill-opacity="1"><g transform="translate(139.066252, 200.858615)"><g><path d="M 3.671875 0 L 3.671875 -31.375 L 14.5 -31.375 L 14.5 -26.84375 L 14.609375 -26.84375 C 14.691406 -27.007812 14.828125 -27.210938 15.015625 -27.453125 C 15.203125 -27.703125 15.597656 -28.128906 16.203125 -28.734375 C 16.816406 -29.347656 17.46875 -29.898438 18.15625 -30.390625 C 18.851562 -30.878906 19.75 -31.316406 20.84375 -31.703125 C 21.945312 -32.097656 23.070312 -32.296875 24.21875 -32.296875 C 25.394531 -32.296875 26.554688 -32.128906 27.703125 -31.796875 C 28.847656 -31.472656 29.6875 -31.148438 30.21875 -30.828125 L 31.0625 -30.328125 L 26.546875 -21.15625 C 25.203125 -22.300781 23.328125 -22.875 20.921875 -22.875 C 19.609375 -22.875 18.484375 -22.585938 17.546875 -22.015625 C 16.609375 -21.441406 15.945312 -20.75 15.5625 -19.9375 C 15.175781 -19.125 14.898438 -18.429688 14.734375 -17.859375 C 14.578125 -17.285156 14.5 -16.835938 14.5 -16.515625 L 14.5 0 Z M 3.671875 0 "/></g></g></g><g fill="#25632d" fill-opacity="1"><g transform="translate(166.460178, 200.858615)"><g><path d="M 20.359375 -23.421875 C 18.328125 -23.421875 16.578125 -22.664062 15.109375 -21.15625 C 13.640625 -19.644531 12.90625 -17.832031 12.90625 -15.71875 C 12.90625 -13.550781 13.640625 -11.710938 15.109375 -10.203125 C 16.578125 -8.703125 18.328125 -7.953125 20.359375 -7.953125 C 21.335938 -7.953125 22.265625 -8.070312 23.140625 -8.3125 C 24.023438 -8.5625 24.671875 -8.804688 25.078125 -9.046875 L 25.625 -9.421875 L 29.296875 -1.890625 C 29.003906 -1.691406 28.601562 -1.4375 28.09375 -1.125 C 27.59375 -0.820312 26.429688 -0.40625 24.609375 0.125 C 22.796875 0.65625 20.851562 0.921875 18.78125 0.921875 C 14.164062 0.921875 10.113281 -0.695312 6.625 -3.9375 C 3.144531 -7.1875 1.40625 -11.070312 1.40625 -15.59375 C 1.40625 -20.15625 3.144531 -24.078125 6.625 -27.359375 C 10.113281 -30.648438 14.164062 -32.296875 18.78125 -32.296875 C 20.851562 -32.296875 22.765625 -32.050781 24.515625 -31.5625 C 26.273438 -31.070312 27.519531 -30.582031 28.25 -30.09375 L 29.296875 -29.359375 L 25.625 -21.953125 C 24.28125 -22.929688 22.523438 -23.421875 20.359375 -23.421875 Z M 20.359375 -23.421875 "/></g></g></g><g fill="#25632d" fill-opacity="1"><g transform="translate(193.426073, 200.858615)"><g><path d="M 35.40625 -14.1875 L 12.65625 -14.1875 C 12.65625 -11.988281 13.367188 -10.359375 14.796875 -9.296875 C 16.222656 -8.234375 17.773438 -7.703125 19.453125 -7.703125 C 21.203125 -7.703125 22.585938 -7.9375 23.609375 -8.40625 C 24.628906 -8.875 25.789062 -9.800781 27.09375 -11.1875 L 34.921875 -7.28125 C 31.660156 -1.8125 26.238281 0.921875 18.65625 0.921875 C 13.925781 0.921875 9.867188 -0.695312 6.484375 -3.9375 C 3.097656 -7.1875 1.40625 -11.09375 1.40625 -15.65625 C 1.40625 -20.21875 3.097656 -24.128906 6.484375 -27.390625 C 9.867188 -30.660156 13.925781 -32.296875 18.65625 -32.296875 C 23.625 -32.296875 27.664062 -30.859375 30.78125 -27.984375 C 33.90625 -25.109375 35.46875 -21 35.46875 -15.65625 C 35.46875 -14.925781 35.445312 -14.4375 35.40625 -14.1875 Z M 12.96875 -20.1875 L 24.890625 -20.1875 C 24.648438 -21.8125 24.007812 -23.0625 22.96875 -23.9375 C 21.925781 -24.8125 20.585938 -25.25 18.953125 -25.25 C 17.160156 -25.25 15.734375 -24.78125 14.671875 -23.84375 C 13.617188 -22.90625 13.050781 -21.6875 12.96875 -20.1875 Z M 12.96875 -20.1875 "/></g></g></g><g fill="#25632d" fill-opacity="1"><g transform="translate(227.240593, 200.858615)"><g><path d="M 3.671875 0 L 3.671875 -52.59375 L 14.5 -52.59375 L 14.5 -28.078125 L 14.609375 -28.078125 C 17.429688 -30.890625 20.429688 -32.296875 23.609375 -32.296875 C 25.160156 -32.296875 26.695312 -32.085938 28.21875 -31.671875 C 29.75 -31.265625 31.21875 -30.632812 32.625 -29.78125 C 34.03125 -28.925781 35.171875 -27.710938 36.046875 -26.140625 C 36.921875 -24.578125 37.359375 -22.753906 37.359375 -20.671875 L 37.359375 0 L 26.546875 0 L 26.546875 -17.734375 C 26.546875 -19.367188 26.023438 -20.796875 24.984375 -22.015625 C 23.941406 -23.234375 22.585938 -23.84375 20.921875 -23.84375 C 19.285156 -23.84375 17.804688 -23.210938 16.484375 -21.953125 C 15.160156 -20.691406 14.5 -19.285156 14.5 -17.734375 L 14.5 0 Z M 3.671875 0 "/></g></g></g><g fill="#25632d" fill-opacity="1"><g transform="translate(264.601728, 200.858615)"><g><path d="M 13.875 -31.375 L 13.875 -16.453125 C 13.875 -13.347656 14.34375 -11.144531 15.28125 -9.84375 C 16.226562 -8.539062 17.820312 -7.890625 20.0625 -7.890625 C 22.300781 -7.890625 23.890625 -8.539062 24.828125 -9.84375 C 25.765625 -11.144531 26.234375 -13.347656 26.234375 -16.453125 L 26.234375 -31.375 L 37.0625 -31.375 L 37.0625 -13.828125 C 37.0625 -8.609375 35.703125 -4.84375 32.984375 -2.53125 C 30.273438 -0.226562 25.960938 0.921875 20.046875 0.921875 C 14.140625 0.921875 9.832031 -0.226562 7.125 -2.53125 C 4.414062 -4.84375 3.0625 -8.609375 3.0625 -13.828125 L 3.0625 -31.375 Z M 13.875 -31.375 "/></g></g></g><g fill="#25632d" fill-opacity="1"><g transform="translate(301.657123, 200.858615)"><g><path d="M 35.953125 -27.453125 C 38.890625 -24.234375 40.359375 -20.300781 40.359375 -15.65625 C 40.359375 -11.007812 38.890625 -7.082031 35.953125 -3.875 C 33.023438 -0.675781 29.296875 0.921875 24.765625 0.921875 C 20.609375 0.921875 17.1875 -0.566406 14.5 -3.546875 L 14.375 -3.546875 L 14.375 0 L 3.671875 0 L 3.671875 -52.59375 L 14.5 -52.59375 L 14.5 -28.375 C 17.1875 -30.988281 20.609375 -32.296875 24.765625 -32.296875 C 29.296875 -32.296875 33.023438 -30.679688 35.953125 -27.453125 Z M 26.84375 -10.359375 C 28.1875 -11.734375 28.859375 -13.5 28.859375 -15.65625 C 28.859375 -17.8125 28.15625 -19.582031 26.75 -20.96875 C 25.34375 -22.363281 23.601562 -23.0625 21.53125 -23.0625 C 19.488281 -23.0625 17.765625 -22.363281 16.359375 -20.96875 C 14.953125 -19.582031 14.25 -17.8125 14.25 -15.65625 C 14.25 -13.53125 14.929688 -11.773438 16.296875 -10.390625 C 17.660156 -9.003906 19.40625 -8.3125 21.53125 -8.3125 C 23.726562 -8.3125 25.5 -8.992188 26.84375 -10.359375 Z M 26.84375 -10.359375 "/></g></g></g><g fill="#25632d" fill-opacity="1"><g transform="translate(340.363511, 200.858615)"><g><path d="M 10.640625 -13.09375 C 12.597656 -13.09375 14.257812 -12.40625 15.625 -11.03125 C 16.988281 -9.664062 17.671875 -8.003906 17.671875 -6.046875 C 17.671875 -4.140625 16.988281 -2.5 15.625 -1.125 C 14.257812 0.238281 12.597656 0.921875 10.640625 0.921875 C 8.722656 0.921875 7.082031 0.238281 5.71875 -1.125 C 4.351562 -2.5 3.671875 -4.140625 3.671875 -6.046875 C 3.671875 -8.003906 4.351562 -9.664062 5.71875 -11.03125 C 7.082031 -12.40625 8.722656 -13.09375 10.640625 -13.09375 Z M 10.640625 -13.09375 "/></g></g></g><g fill="#000000" fill-opacity="1"><g transform="translate(40.745405, 229.032055)"><g><path d="M 2.078125 -3.90625 L 1.765625 -3.90625 C 1.722656 -3.90625 1.6875 -3.914062 1.65625 -3.9375 C 1.632812 -3.96875 1.628906 -4 1.640625 -4.03125 L 1.734375 -5.078125 L 1.109375 -4.25 C 1.046875 -4.1875 0.984375 -4.1875 0.921875 -4.25 L 0.703125 -4.46875 C 0.640625 -4.539062 0.640625 -4.601562 0.703125 -4.65625 L 1.5625 -5.296875 L 0.484375 -5.1875 C 0.441406 -5.175781 0.410156 -5.179688 0.390625 -5.203125 C 0.367188 -5.234375 0.359375 -5.269531 0.359375 -5.3125 L 0.359375 -5.625 C 0.359375 -5.664062 0.367188 -5.695312 0.390625 -5.71875 C 0.410156 -5.738281 0.441406 -5.75 0.484375 -5.75 L 1.546875 -5.609375 L 0.703125 -6.28125 C 0.628906 -6.34375 0.628906 -6.40625 0.703125 -6.46875 L 0.921875 -6.6875 C 0.992188 -6.738281 1.050781 -6.738281 1.09375 -6.6875 L 1.765625 -5.859375 L 1.640625 -6.90625 C 1.628906 -6.9375 1.632812 -6.960938 1.65625 -6.984375 C 1.6875 -7.015625 1.722656 -7.03125 1.765625 -7.03125 L 2.078125 -7.03125 C 2.109375 -7.03125 2.132812 -7.019531 2.15625 -7 C 2.1875 -6.976562 2.203125 -6.945312 2.203125 -6.90625 L 2.09375 -5.84375 L 2.734375 -6.6875 C 2.796875 -6.75 2.859375 -6.75 2.921875 -6.6875 L 3.140625 -6.46875 C 3.203125 -6.40625 3.195312 -6.34375 3.125 -6.28125 L 2.296875 -5.609375 L 3.359375 -5.75 C 3.390625 -5.757812 3.414062 -5.75 3.4375 -5.71875 C 3.46875 -5.695312 3.484375 -5.671875 3.484375 -5.640625 L 3.484375 -5.3125 C 3.484375 -5.226562 3.441406 -5.1875 3.359375 -5.1875 L 2.3125 -5.296875 L 3.140625 -4.65625 C 3.191406 -4.601562 3.191406 -4.546875 3.140625 -4.484375 L 2.921875 -4.25 C 2.859375 -4.1875 2.796875 -4.1875 2.734375 -4.25 L 2.078125 -5.0625 L 2.203125 -4.03125 C 2.203125 -3.988281 2.1875 -3.957031 2.15625 -3.9375 C 2.132812 -3.914062 2.109375 -3.90625 2.078125 -3.90625 Z M 2.078125 -3.90625 "/></g></g></g><g fill="#000000" fill-opacity="1"><g transform="translate(45.053979, 229.032055)"><g><path d="M 5.515625 0 L 0.5625 0 C 0.488281 0 0.453125 -0.0351562 0.453125 -0.109375 L 0.453125 -0.59375 C 0.453125 -0.664062 0.488281 -0.703125 0.5625 -0.703125 L 1.28125 -0.703125 L 1.28125 -5.984375 L 0.5625 -5.984375 C 0.488281 -5.984375 0.453125 -6.019531 0.453125 -6.09375 L 0.453125 -6.578125 C 0.453125 -6.648438 0.488281 -6.6875 0.5625 -6.6875 L 5.515625 -6.6875 C 5.597656 -6.6875 5.640625 -6.648438 5.640625 -6.578125 L 5.640625 -5.078125 C 5.640625 -4.992188 5.597656 -4.953125 5.515625 -4.953125 L 5.015625 -4.953125 C 4.929688 -4.953125 4.890625 -4.992188 4.890625 -5.078125 L 4.890625 -5.984375 L 2.09375 -5.984375 L 2.09375 -3.671875 L 4.4375 -3.671875 C 4.519531 -3.671875 4.5625 -3.632812 4.5625 -3.5625 L 4.5625 -3.09375 C 4.5625 -3.019531 4.519531 -2.984375 4.4375 -2.984375 L 2.09375 -2.984375 L 2.09375 -0.703125 L 4.890625 -0.703125 L 4.890625 -1.609375 C 4.890625 -1.679688 4.929688 -1.71875 5.015625 -1.71875 L 5.515625 -1.71875 C 5.597656 -1.71875 5.640625 -1.679688 5.640625 -1.609375 L 5.640625 -0.109375 C 5.640625 -0.0351562 5.597656 0 5.515625 0 Z M 5.515625 0 "/></g></g></g><g fill="#000000" fill-opacity="1"><g transform="translate(51.595695, 229.032055)"><g><path d="M 6.953125 0 L 4.703125 0 C 4.628906 0 4.59375 -0.0351562 4.59375 -0.109375 L 4.59375 -0.59375 C 4.59375 -0.664062 4.628906 -0.703125 4.703125 -0.703125 L 5.3125 -0.703125 L 3.765625 -2.875 L 2.171875 -0.703125 L 2.796875 -0.703125 C 2.878906 -0.703125 2.921875 -0.664062 2.921875 -0.59375 L 2.921875 -0.109375 C 2.921875 -0.0351562 2.878906 0 2.796875 0 L 0.5625 0 C 0.488281 0 0.453125 -0.0351562 0.453125 -0.109375 L 0.453125 -0.59375 C 0.453125 -0.664062 0.488281 -0.703125 0.5625 -0.703125 L 1.28125 -0.703125 L 3.296875 -3.375 L 1.28125 -5.984375 L 0.5625 -5.984375 C 0.488281 -5.984375 0.453125 -6.019531 0.453125 -6.09375 L 0.453125 -6.578125 C 0.453125 -6.648438 0.488281 -6.6875 0.5625 -6.6875 L 2.796875 -6.6875 C 2.878906 -6.6875 2.921875 -6.648438 2.921875 -6.578125 L 2.921875 -6.09375 C 2.921875 -6.019531 2.878906 -5.984375 2.796875 -5.984375 L 2.171875 -5.984375 L 3.75 -3.890625 L 5.34375 -5.984375 L 4.765625 -5.984375 C 4.691406 -5.984375 4.65625 -6.019531 4.65625 -6.09375 L 4.65625 -6.578125 C 4.65625 -6.648438 4.691406 -6.6875 4.765625 -6.6875 L 7.015625 -6.6875 C 7.085938 -6.6875 7.125 -6.648438 7.125 -6.578125 L 7.125 -6.09375 C 7.125 -6.019531 7.085938 -5.984375 7.015625 -5.984375 L 6.234375 -5.984375 L 4.234375 -3.375 L 6.203125 -0.703125 L 6.953125 -0.703125 C 7.023438 -0.703125 7.0625 -0.664062 7.0625 -0.59375 L 7.0625 -0.109375 C 7.0625 -0.0351562 7.023438 0 6.953125 0 Z M 6.953125 0 "/></g></g></g><g fill="#000000" fill-opacity="1"><g transform="translate(59.635477, 229.032055)"><g><path d="M 6.484375 -1.6875 C 6.515625 -1.65625 6.53125 -1.625 6.53125 -1.59375 C 6.53125 -1.5625 6.515625 -1.515625 6.484375 -1.453125 C 6.460938 -1.398438 6.421875 -1.320312 6.359375 -1.21875 C 6.296875 -1.125 6.175781 -0.992188 6 -0.828125 C 5.832031 -0.660156 5.648438 -0.515625 5.453125 -0.390625 C 5.253906 -0.273438 4.992188 -0.171875 4.671875 -0.078125 C 4.347656 0.015625 4 0.0625 3.625 0.0625 C 2.71875 0.0625 1.960938 -0.25 1.359375 -0.875 C 0.753906 -1.507812 0.453125 -2.34375 0.453125 -3.375 C 0.453125 -4.40625 0.753906 -5.222656 1.359375 -5.828125 C 1.972656 -6.429688 2.710938 -6.734375 3.578125 -6.734375 C 4.535156 -6.734375 5.234375 -6.40625 5.671875 -5.75 L 5.65625 -6.578125 C 5.644531 -6.648438 5.6875 -6.6875 5.78125 -6.6875 L 6.296875 -6.6875 C 6.378906 -6.6875 6.421875 -6.648438 6.421875 -6.578125 L 6.421875 -4.546875 C 6.421875 -4.460938 6.378906 -4.421875 6.296875 -4.421875 L 5.703125 -4.421875 C 5.628906 -4.421875 5.59375 -4.460938 5.59375 -4.546875 L 5.59375 -4.625 C 5.59375 -4.914062 5.398438 -5.210938 5.015625 -5.515625 C 4.628906 -5.828125 4.144531 -5.984375 3.5625 -5.984375 C 2.988281 -5.984375 2.46875 -5.753906 2 -5.296875 C 1.539062 -4.835938 1.3125 -4.191406 1.3125 -3.359375 C 1.3125 -2.523438 1.539062 -1.875 2 -1.40625 C 2.46875 -0.945312 3.019531 -0.71875 3.65625 -0.71875 C 4.332031 -0.71875 4.863281 -0.867188 5.25 -1.171875 C 5.550781 -1.410156 5.773438 -1.648438 5.921875 -1.890625 C 5.972656 -1.984375 6.03125 -2.003906 6.09375 -1.953125 Z M 6.484375 -1.6875 "/></g></g></g><g fill="#000000" fill-opacity="1"><g transform="translate(67.098363, 229.032055)"><g><path d="M 5.65625 0 L 0.5625 0 C 0.488281 0 0.453125 -0.0351562 0.453125 -0.109375 L 0.453125 -0.59375 C 0.453125 -0.664062 0.488281 -0.703125 0.5625 -0.703125 L 1.28125 -0.703125 L 1.28125 -5.984375 L 0.5625 -5.984375 C 0.488281 -5.984375 0.453125 -6.019531 0.453125 -6.09375 L 0.453125 -6.578125 C 0.453125 -6.648438 0.488281 -6.6875 0.5625 -6.6875 L 2.796875 -6.6875 C 2.878906 -6.6875 2.921875 -6.644531 2.921875 -6.5625 L 2.921875 -6.109375 C 2.921875 -6.023438 2.878906 -5.984375 2.796875 -5.984375 L 2.09375 -5.984375 L 2.09375 -0.703125 L 5.046875 -0.703125 L 5.046875 -1.609375 C 5.046875 -1.679688 5.085938 -1.71875 5.171875 -1.71875 L 5.671875 -1.71875 C 5.742188 -1.71875 5.78125 -1.679688 5.78125 -1.609375 L 5.78125 -0.125 C 5.78125 -0.0390625 5.738281 0 5.65625 0 Z M 5.65625 0 "/></g></g></g><g fill="#000000" fill-opacity="1"><g transform="translate(73.798261, 229.032055)"><g><path d="M 5.5 -2.421875 L 5.5 -5.984375 L 4.78125 -5.984375 C 4.707031 -5.984375 4.671875 -6.019531 4.671875 -6.09375 L 4.671875 -6.578125 C 4.671875 -6.648438 4.707031 -6.6875 4.78125 -6.6875 L 7.015625 -6.6875 C 7.097656 -6.6875 7.140625 -6.648438 7.140625 -6.578125 L 7.140625 -6.09375 C 7.140625 -6.019531 7.097656 -5.984375 7.015625 -5.984375 L 6.296875 -5.984375 L 6.296875 -2.5 C 6.296875 -1.664062 6.078125 -1.03125 5.640625 -0.59375 C 5.203125 -0.15625 4.582031 0.0625 3.78125 0.0625 C 2.988281 0.0625 2.375 -0.15625 1.9375 -0.59375 C 1.5 -1.03125 1.28125 -1.664062 1.28125 -2.5 L 1.28125 -5.984375 L 0.5625 -5.984375 C 0.488281 -5.984375 0.453125 -6.019531 0.453125 -6.09375 L 0.453125 -6.578125 C 0.453125 -6.648438 0.488281 -6.6875 0.5625 -6.6875 L 2.796875 -6.6875 C 2.878906 -6.6875 2.921875 -6.648438 2.921875 -6.578125 L 2.921875 -6.09375 C 2.921875 -6.019531 2.878906 -5.984375 2.796875 -5.984375 L 2.09375 -5.984375 L 2.09375 -2.484375 C 2.09375 -1.285156 2.660156 -0.6875 3.796875 -0.6875 C 4.378906 -0.6875 4.804688 -0.835938 5.078125 -1.140625 C 5.359375 -1.453125 5.5 -1.878906 5.5 -2.421875 Z M 5.5 -2.421875 "/></g></g></g><g fill="#000000" fill-opacity="1"><g transform="translate(81.838043, 229.032055)"><g><path d="M 1.09375 0 L 0.5625 0 C 0.488281 0 0.453125 -0.0351562 0.453125 -0.109375 L 0.453125 -2.296875 C 0.453125 -2.367188 0.488281 -2.40625 0.5625 -2.40625 L 1.15625 -2.40625 C 1.226562 -2.40625 1.265625 -2.367188 1.265625 -2.296875 L 1.265625 -2.09375 C 1.265625 -1.976562 1.332031 -1.820312 1.46875 -1.625 C 1.613281 -1.425781 1.757812 -1.265625 1.90625 -1.140625 C 2.050781 -1.015625 2.242188 -0.90625 2.484375 -0.8125 C 2.722656 -0.726562 2.984375 -0.6875 3.265625 -0.6875 C 3.734375 -0.6875 4.101562 -0.785156 4.375 -0.984375 C 4.644531 -1.179688 4.78125 -1.457031 4.78125 -1.8125 C 4.78125 -2.019531 4.703125 -2.195312 4.546875 -2.34375 C 4.398438 -2.488281 4.207031 -2.601562 3.96875 -2.6875 C 3.726562 -2.78125 3.457031 -2.863281 3.15625 -2.9375 C 2.863281 -3.007812 2.566406 -3.09375 2.265625 -3.1875 C 1.972656 -3.28125 1.707031 -3.394531 1.46875 -3.53125 C 1.226562 -3.664062 1.03125 -3.851562 0.875 -4.09375 C 0.726562 -4.332031 0.65625 -4.613281 0.65625 -4.9375 C 0.65625 -5.457031 0.847656 -5.882812 1.234375 -6.21875 C 1.628906 -6.5625 2.160156 -6.734375 2.828125 -6.734375 C 3.671875 -6.734375 4.285156 -6.488281 4.671875 -6 L 4.65625 -6.578125 C 4.65625 -6.660156 4.695312 -6.703125 4.78125 -6.703125 L 5.296875 -6.703125 C 5.367188 -6.703125 5.40625 -6.660156 5.40625 -6.578125 L 5.40625 -4.546875 C 5.40625 -4.472656 5.367188 -4.4375 5.296875 -4.4375 L 4.71875 -4.4375 C 4.632812 -4.4375 4.59375 -4.472656 4.59375 -4.546875 L 4.59375 -4.8125 C 4.59375 -5.070312 4.453125 -5.332031 4.171875 -5.59375 C 3.890625 -5.851562 3.472656 -5.984375 2.921875 -5.984375 C 2.503906 -5.984375 2.171875 -5.882812 1.921875 -5.6875 C 1.671875 -5.488281 1.546875 -5.238281 1.546875 -4.9375 C 1.546875 -4.71875 1.625 -4.53125 1.78125 -4.375 C 1.9375 -4.21875 2.132812 -4.09375 2.375 -4 C 2.625 -3.90625 2.898438 -3.816406 3.203125 -3.734375 C 3.503906 -3.660156 3.800781 -3.578125 4.09375 -3.484375 C 4.394531 -3.398438 4.671875 -3.289062 4.921875 -3.15625 C 5.171875 -3.03125 5.367188 -2.851562 5.515625 -2.625 C 5.671875 -2.394531 5.75 -2.125 5.75 -1.8125 C 5.75 -1.269531 5.550781 -0.820312 5.15625 -0.46875 C 4.769531 -0.113281 4.191406 0.0625 3.421875 0.0625 C 2.847656 0.0625 2.375 -0.0507812 2 -0.28125 C 1.625 -0.507812 1.351562 -0.757812 1.1875 -1.03125 L 1.203125 -0.109375 C 1.203125 -0.0351562 1.164062 0 1.09375 0 Z M 1.09375 0 "/></g></g></g><g fill="#000000" fill-opacity="1"><g transform="translate(88.500725, 229.032055)"><g><path d="M 2.796875 0 L 0.5625 0 C 0.488281 0 0.453125 -0.0351562 0.453125 -0.109375 L 0.453125 -0.59375 C 0.453125 -0.664062 0.488281 -0.703125 0.5625 -0.703125 L 1.28125 -0.703125 L 1.28125 -5.984375 L 0.5625 -5.984375 C 0.488281 -5.984375 0.453125 -6.019531 0.453125 -6.09375 L 0.453125 -6.578125 C 0.453125 -6.648438 0.488281 -6.6875 0.5625 -6.6875 L 2.796875 -6.6875 C 2.878906 -6.6875 2.921875 -6.648438 2.921875 -6.578125 L 2.921875 -6.09375 C 2.921875 -6.019531 2.878906 -5.984375 2.796875 -5.984375 L 2.09375 -5.984375 L 2.09375 -0.703125 L 2.796875 -0.703125 C 2.878906 -0.703125 2.921875 -0.664062 2.921875 -0.59375 L 2.921875 -0.109375 C 2.921875 -0.0351562 2.878906 0 2.796875 0 Z M 2.796875 0 "/></g></g></g><g fill="#000000" fill-opacity="1"><g transform="translate(92.334755, 229.032055)"><g><path d="M 4.140625 0 L 3.765625 0 C 3.648438 0 3.5625 -0.0234375 3.5 -0.078125 C 3.4375 -0.140625 3.378906 -0.238281 3.328125 -0.375 L 1.15625 -5.984375 L 0.5625 -5.984375 C 0.488281 -5.984375 0.453125 -6.019531 0.453125 -6.09375 L 0.453125 -6.578125 C 0.453125 -6.648438 0.488281 -6.6875 0.5625 -6.6875 L 2.65625 -6.6875 C 2.738281 -6.6875 2.78125 -6.648438 2.78125 -6.578125 L 2.78125 -6.09375 C 2.78125 -6.019531 2.738281 -5.984375 2.65625 -5.984375 L 2.03125 -5.984375 L 3.921875 -0.984375 L 3.96875 -0.984375 L 5.859375 -5.984375 L 5.234375 -5.984375 C 5.148438 -5.984375 5.109375 -6.019531 5.109375 -6.09375 L 5.109375 -6.578125 C 5.109375 -6.648438 5.148438 -6.6875 5.234375 -6.6875 L 7.328125 -6.6875 C 7.410156 -6.6875 7.453125 -6.648438 7.453125 -6.578125 L 7.453125 -6.09375 C 7.453125 -6.019531 7.410156 -5.984375 7.328125 -5.984375 L 6.71875 -5.984375 L 4.5625 -0.375 C 4.519531 -0.238281 4.46875 -0.140625 4.40625 -0.078125 C 4.351562 -0.0234375 4.265625 0 4.140625 0 Z M 4.140625 0 "/></g></g></g><g fill="#000000" fill-opacity="1"><g transform="translate(100.690899, 229.032055)"><g><path d="M 5.515625 0 L 0.5625 0 C 0.488281 0 0.453125 -0.0351562 0.453125 -0.109375 L 0.453125 -0.59375 C 0.453125 -0.664062 0.488281 -0.703125 0.5625 -0.703125 L 1.28125 -0.703125 L 1.28125 -5.984375 L 0.5625 -5.984375 C 0.488281 -5.984375 0.453125 -6.019531 0.453125 -6.09375 L 0.453125 -6.578125 C 0.453125 -6.648438 0.488281 -6.6875 0.5625 -6.6875 L 5.515625 -6.6875 C 5.597656 -6.6875 5.640625 -6.648438 5.640625 -6.578125 L 5.640625 -5.078125 C 5.640625 -4.992188 5.597656 -4.953125 5.515625 -4.953125 L 5.015625 -4.953125 C 4.929688 -4.953125 4.890625 -4.992188 4.890625 -5.078125 L 4.890625 -5.984375 L 2.09375 -5.984375 L 2.09375 -3.671875 L 4.4375 -3.671875 C 4.519531 -3.671875 4.5625 -3.632812 4.5625 -3.5625 L 4.5625 -3.09375 C 4.5625 -3.019531 4.519531 -2.984375 4.4375 -2.984375 L 2.09375 -2.984375 L 2.09375 -0.703125 L 4.890625 -0.703125 L 4.890625 -1.609375 C 4.890625 -1.679688 4.929688 -1.71875 5.015625 -1.71875 L 5.515625 -1.71875 C 5.597656 -1.71875 5.640625 -1.679688 5.640625 -1.609375 L 5.640625 -0.109375 C 5.640625 -0.0351562 5.597656 0 5.515625 0 Z M 5.515625 0 "/></g></g></g><g fill="#000000" fill-opacity="1"><g transform="translate(107.232616, 229.032055)"><g/></g></g><g fill="#000000" fill-opacity="1"><g transform="translate(110.610717, 229.032055)"><g><path d="M 6.484375 -1.6875 C 6.515625 -1.65625 6.53125 -1.625 6.53125 -1.59375 C 6.53125 -1.5625 6.515625 -1.515625 6.484375 -1.453125 C 6.460938 -1.398438 6.421875 -1.320312 6.359375 -1.21875 C 6.296875 -1.125 6.175781 -0.992188 6 -0.828125 C 5.832031 -0.660156 5.648438 -0.515625 5.453125 -0.390625 C 5.253906 -0.273438 4.992188 -0.171875 4.671875 -0.078125 C 4.347656 0.015625 4 0.0625 3.625 0.0625 C 2.71875 0.0625 1.960938 -0.25 1.359375 -0.875 C 0.753906 -1.507812 0.453125 -2.34375 0.453125 -3.375 C 0.453125 -4.40625 0.753906 -5.222656 1.359375 -5.828125 C 1.972656 -6.429688 2.710938 -6.734375 3.578125 -6.734375 C 4.535156 -6.734375 5.234375 -6.40625 5.671875 -5.75 L 5.65625 -6.578125 C 5.644531 -6.648438 5.6875 -6.6875 5.78125 -6.6875 L 6.296875 -6.6875 C 6.378906 -6.6875 6.421875 -6.648438 6.421875 -6.578125 L 6.421875 -4.546875 C 6.421875 -4.460938 6.378906 -4.421875 6.296875 -4.421875 L 5.703125 -4.421875 C 5.628906 -4.421875 5.59375 -4.460938 5.59375 -4.546875 L 5.59375 -4.625 C 5.59375 -4.914062 5.398438 -5.210938 5.015625 -5.515625 C 4.628906 -5.828125 4.144531 -5.984375 3.5625 -5.984375 C 2.988281 -5.984375 2.46875 -5.753906 2 -5.296875 C 1.539062 -4.835938 1.3125 -4.191406 1.3125 -3.359375 C 1.3125 -2.523438 1.539062 -1.875 2 -1.40625 C 2.46875 -0.945312 3.019531 -0.71875 3.65625 -0.71875 C 4.332031 -0.71875 4.863281 -0.867188 5.25 -1.171875 C 5.550781 -1.410156 5.773438 -1.648438 5.921875 -1.890625 C 5.972656 -1.984375 6.03125 -2.003906 6.09375 -1.953125 Z M 6.484375 -1.6875 "/></g></g></g><g fill="#000000" fill-opacity="1"><g transform="translate(118.073603, 229.032055)"><g><path d="M 6.921875 -3.375 C 6.921875 -2.351562 6.613281 -1.523438 6 -0.890625 C 5.394531 -0.253906 4.628906 0.0625 3.703125 0.0625 C 2.773438 0.0625 2 -0.253906 1.375 -0.890625 C 0.757812 -1.535156 0.453125 -2.363281 0.453125 -3.375 C 0.453125 -4.394531 0.769531 -5.207031 1.40625 -5.8125 C 2.039062 -6.425781 2.800781 -6.734375 3.6875 -6.734375 C 4.582031 -6.734375 5.34375 -6.425781 5.96875 -5.8125 C 6.601562 -5.207031 6.921875 -4.394531 6.921875 -3.375 Z M 2.03125 -1.390625 C 2.507812 -0.921875 3.0625 -0.6875 3.6875 -0.6875 C 4.320312 -0.6875 4.875 -0.921875 5.34375 -1.390625 C 5.820312 -1.867188 6.0625 -2.519531 6.0625 -3.34375 C 6.0625 -4.175781 5.820312 -4.828125 5.34375 -5.296875 C 4.863281 -5.765625 4.316406 -6 3.703125 -6 C 3.085938 -6 2.535156 -5.765625 2.046875 -5.296875 C 1.566406 -4.828125 1.328125 -4.175781 1.328125 -3.34375 C 1.328125 -2.519531 1.5625 -1.867188 2.03125 -1.390625 Z M 2.03125 -1.390625 "/></g></g></g><g fill="#000000" fill-opacity="1"><g transform="translate(125.91799, 229.032055)"><g><path d="M 8 0 L 5.84375 0 C 5.769531 0 5.734375 -0.0351562 5.734375 -0.109375 L 5.734375 -0.59375 C 5.734375 -0.664062 5.769531 -0.703125 5.84375 -0.703125 L 6.46875 -0.703125 L 6.46875 -5.34375 L 4.6875 -0.9375 C 4.613281 -0.75 4.476562 -0.65625 4.28125 -0.65625 C 4.082031 -0.65625 3.945312 -0.75 3.875 -0.9375 L 2.109375 -5.34375 L 2.09375 -5.34375 L 2.09375 -0.703125 L 2.703125 -0.703125 C 2.785156 -0.703125 2.828125 -0.664062 2.828125 -0.59375 L 2.828125 -0.109375 C 2.828125 -0.0351562 2.785156 0 2.703125 0 L 0.5625 0 C 0.488281 0 0.453125 -0.0351562 0.453125 -0.109375 L 0.453125 -0.59375 C 0.453125 -0.664062 0.488281 -0.703125 0.5625 -0.703125 L 1.28125 -0.703125 L 1.28125 -5.984375 L 0.5625 -5.984375 C 0.488281 -5.984375 0.453125 -6.019531 0.453125 -6.09375 L 0.453125 -6.578125 C 0.453125 -6.648438 0.488281 -6.6875 0.5625 -6.6875 L 2 -6.6875 C 2.207031 -6.6875 2.351562 -6.582031 2.4375 -6.375 L 3.828125 -3.015625 L 4.265625 -1.84375 L 4.296875 -1.84375 C 4.472656 -2.320312 4.617188 -2.707031 4.734375 -3 L 6.125 -6.375 C 6.207031 -6.582031 6.359375 -6.6875 6.578125 -6.6875 L 8 -6.6875 C 8.070312 -6.6875 8.109375 -6.648438 8.109375 -6.578125 L 8.109375 -6.09375 C 8.109375 -6.019531 8.070312 -5.984375 8 -5.984375 L 7.28125 -5.984375 L 7.28125 -0.703125 L 8 -0.703125 C 8.070312 -0.703125 8.109375 -0.664062 8.109375 -0.59375 L 8.109375 -0.109375 C 8.109375 -0.0351562 8.070312 0 8 0 Z M 8 0 "/></g></g></g><g fill="#000000" fill-opacity="1"><g transform="translate(134.934766, 229.032055)"><g><path d="M 8 0 L 5.84375 0 C 5.769531 0 5.734375 -0.0351562 5.734375 -0.109375 L 5.734375 -0.59375 C 5.734375 -0.664062 5.769531 -0.703125 5.84375 -0.703125 L 6.46875 -0.703125 L 6.46875 -5.34375 L 4.6875 -0.9375 C 4.613281 -0.75 4.476562 -0.65625 4.28125 -0.65625 C 4.082031 -0.65625 3.945312 -0.75 3.875 -0.9375 L 2.109375 -5.34375 L 2.09375 -5.34375 L 2.09375 -0.703125 L 2.703125 -0.703125 C 2.785156 -0.703125 2.828125 -0.664062 2.828125 -0.59375 L 2.828125 -0.109375 C 2.828125 -0.0351562 2.785156 0 2.703125 0 L 0.5625 0 C 0.488281 0 0.453125 -0.0351562 0.453125 -0.109375 L 0.453125 -0.59375 C 0.453125 -0.664062 0.488281 -0.703125 0.5625 -0.703125 L 1.28125 -0.703125 L 1.28125 -5.984375 L 0.5625 -5.984375 C 0.488281 -5.984375 0.453125 -6.019531 0.453125 -6.09375 L 0.453125 -6.578125 C 0.453125 -6.648438 0.488281 -6.6875 0.5625 -6.6875 L 2 -6.6875 C 2.207031 -6.6875 2.351562 -6.582031 2.4375 -6.375 L 3.828125 -3.015625 L 4.265625 -1.84375 L 4.296875 -1.84375 C 4.472656 -2.320312 4.617188 -2.707031 4.734375 -3 L 6.125 -6.375 C 6.207031 -6.582031 6.359375 -6.6875 6.578125 -6.6875 L 8 -6.6875 C 8.070312 -6.6875 8.109375 -6.648438 8.109375 -6.578125 L 8.109375 -6.09375 C 8.109375 -6.019531 8.070312 -5.984375 8 -5.984375 L 7.28125 -5.984375 L 7.28125 -0.703125 L 8 -0.703125 C 8.070312 -0.703125 8.109375 -0.664062 8.109375 -0.59375 L 8.109375 -0.109375 C 8.109375 -0.0351562 8.070312 0 8 0 Z M 8 0 "/></g></g></g><g fill="#000000" fill-opacity="1"><g transform="translate(143.951537, 229.032055)"><g><path d="M 5.5 -2.421875 L 5.5 -5.984375 L 4.78125 -5.984375 C 4.707031 -5.984375 4.671875 -6.019531 4.671875 -6.09375 L 4.671875 -6.578125 C 4.671875 -6.648438 4.707031 -6.6875 4.78125 -6.6875 L 7.015625 -6.6875 C 7.097656 -6.6875 7.140625 -6.648438 7.140625 -6.578125 L 7.140625 -6.09375 C 7.140625 -6.019531 7.097656 -5.984375 7.015625 -5.984375 L 6.296875 -5.984375 L 6.296875 -2.5 C 6.296875 -1.664062 6.078125 -1.03125 5.640625 -0.59375 C 5.203125 -0.15625 4.582031 0.0625 3.78125 0.0625 C 2.988281 0.0625 2.375 -0.15625 1.9375 -0.59375 C 1.5 -1.03125 1.28125 -1.664062 1.28125 -2.5 L 1.28125 -5.984375 L 0.5625 -5.984375 C 0.488281 -5.984375 0.453125 -6.019531 0.453125 -6.09375 L 0.453125 -6.578125 C 0.453125 -6.648438 0.488281 -6.6875 0.5625 -6.6875 L 2.796875 -6.6875 C 2.878906 -6.6875 2.921875 -6.648438 2.921875 -6.578125 L 2.921875 -6.09375 C 2.921875 -6.019531 2.878906 -5.984375 2.796875 -5.984375 L 2.09375 -5.984375 L 2.09375 -2.484375 C 2.09375 -1.285156 2.660156 -0.6875 3.796875 -0.6875 C 4.378906 -0.6875 4.804688 -0.835938 5.078125 -1.140625 C 5.359375 -1.453125 5.5 -1.878906 5.5 -2.421875 Z M 5.5 -2.421875 "/></g></g></g><g fill="#000000" fill-opacity="1"><g transform="translate(151.99132, 229.032055)"><g><path d="M 6.234375 0 L 5.734375 0 C 5.617188 0 5.523438 -0.0195312 5.453125 -0.0625 C 5.390625 -0.113281 5.328125 -0.1875 5.265625 -0.28125 L 2.5625 -4.5 L 2.109375 -5.28125 L 2.09375 -5.28125 L 2.09375 -0.703125 L 2.796875 -0.703125 C 2.878906 -0.703125 2.921875 -0.664062 2.921875 -0.59375 L 2.921875 -0.109375 C 2.921875 -0.0351562 2.878906 0 2.796875 0 L 0.5625 0 C 0.488281 0 0.453125 -0.0351562 0.453125 -0.109375 L 0.453125 -0.59375 C 0.453125 -0.664062 0.488281 -0.703125 0.5625 -0.703125 L 1.28125 -0.703125 L 1.28125 -5.984375 L 0.5625 -5.984375 C 0.488281 -5.984375 0.453125 -6.019531 0.453125 -6.09375 L 0.453125 -6.578125 C 0.453125 -6.648438 0.488281 -6.6875 0.5625 -6.6875 L 1.875 -6.6875 C 2.050781 -6.6875 2.207031 -6.582031 2.34375 -6.375 L 5 -2.21875 L 5.53125 -1.3125 L 5.546875 -1.3125 L 5.546875 -5.984375 L 4.828125 -5.984375 C 4.753906 -5.984375 4.71875 -6.019531 4.71875 -6.09375 L 4.71875 -6.578125 C 4.71875 -6.648438 4.753906 -6.6875 4.828125 -6.6875 L 7.078125 -6.6875 C 7.148438 -6.6875 7.1875 -6.648438 7.1875 -6.578125 L 7.1875 -6.09375 C 7.1875 -6.019531 7.148438 -5.984375 7.078125 -5.984375 L 6.359375 -5.984375 L 6.359375 -0.109375 C 6.359375 -0.0351562 6.316406 0 6.234375 0 Z M 6.234375 0 "/></g></g></g><g fill="#000000" fill-opacity="1"><g transform="translate(160.086927, 229.032055)"><g><path d="M 2.796875 0 L 0.5625 0 C 0.488281 0 0.453125 -0.0351562 0.453125 -0.109375 L 0.453125 -0.59375 C 0.453125 -0.664062 0.488281 -0.703125 0.5625 -0.703125 L 1.28125 -0.703125 L 1.28125 -5.984375 L 0.5625 -5.984375 C 0.488281 -5.984375 0.453125 -6.019531 0.453125 -6.09375 L 0.453125 -6.578125 C 0.453125 -6.648438 0.488281 -6.6875 0.5625 -6.6875 L 2.796875 -6.6875 C 2.878906 -6.6875 2.921875 -6.648438 2.921875 -6.578125 L 2.921875 -6.09375 C 2.921875 -6.019531 2.878906 -5.984375 2.796875 -5.984375 L 2.09375 -5.984375 L 2.09375 -0.703125 L 2.796875 -0.703125 C 2.878906 -0.703125 2.921875 -0.664062 2.921875 -0.59375 L 2.921875 -0.109375 C 2.921875 -0.0351562 2.878906 0 2.796875 0 Z M 2.796875 0 "/></g></g></g><g fill="#000000" fill-opacity="1"><g transform="translate(163.920961, 229.032055)"><g><path d="M 4.453125 0 L 2.28125 0 C 2.195312 0 2.15625 -0.0390625 2.15625 -0.125 L 2.15625 -0.578125 C 2.15625 -0.660156 2.195312 -0.703125 2.28125 -0.703125 L 2.984375 -0.703125 L 2.984375 -5.984375 L 1.234375 -5.984375 L 1.234375 -5 C 1.234375 -4.914062 1.1875 -4.875 1.09375 -4.875 L 0.578125 -4.875 C 0.492188 -4.875 0.453125 -4.914062 0.453125 -5 L 0.453125 -6.5625 C 0.453125 -6.644531 0.492188 -6.6875 0.578125 -6.6875 L 6.1875 -6.6875 C 6.28125 -6.6875 6.328125 -6.644531 6.328125 -6.5625 L 6.328125 -5 C 6.328125 -4.914062 6.28125 -4.875 6.1875 -4.875 L 5.65625 -4.875 C 5.582031 -4.875 5.546875 -4.914062 5.546875 -5 L 5.546875 -5.984375 L 3.796875 -5.984375 L 3.796875 -0.703125 L 4.453125 -0.703125 C 4.535156 -0.703125 4.578125 -0.660156 4.578125 -0.578125 L 4.578125 -0.125 C 4.578125 -0.0390625 4.535156 0 4.453125 0 Z M 4.453125 0 "/></g></g></g><g fill="#000000" fill-opacity="1"><g transform="translate(171.151223, 229.032055)"><g><path d="M 4.65625 0 L 2.40625 0 C 2.332031 0 2.296875 -0.0351562 2.296875 -0.109375 L 2.296875 -0.59375 C 2.296875 -0.664062 2.332031 -0.703125 2.40625 -0.703125 L 3.125 -0.703125 L 3.125 -2.6875 L 2.75 -3.328125 C 1.945312 -4.765625 1.429688 -5.648438 1.203125 -5.984375 L 0.5625 -5.984375 C 0.488281 -5.984375 0.453125 -6.019531 0.453125 -6.09375 L 0.453125 -6.578125 C 0.453125 -6.648438 0.488281 -6.6875 0.5625 -6.6875 L 2.65625 -6.6875 C 2.738281 -6.6875 2.78125 -6.648438 2.78125 -6.578125 L 2.78125 -6.09375 C 2.78125 -6.019531 2.738281 -5.984375 2.65625 -5.984375 L 2.046875 -5.984375 L 3.515625 -3.40625 L 3.5625 -3.40625 L 5.015625 -5.984375 L 4.40625 -5.984375 C 4.332031 -5.984375 4.296875 -6.019531 4.296875 -6.09375 L 4.296875 -6.578125 C 4.296875 -6.648438 4.332031 -6.6875 4.40625 -6.6875 L 6.515625 -6.6875 C 6.585938 -6.6875 6.625 -6.648438 6.625 -6.578125 L 6.625 -6.09375 C 6.625 -6.019531 6.585938 -5.984375 6.515625 -5.984375 L 5.859375 -5.984375 C 5.554688 -5.535156 5.160156 -4.875 4.671875 -4 C 4.191406 -3.132812 3.945312 -2.703125 3.9375 -2.703125 L 3.9375 -0.703125 L 4.65625 -0.703125 C 4.726562 -0.703125 4.765625 -0.664062 4.765625 -0.59375 L 4.765625 -0.109375 C 4.765625 -0.0351562 4.726562 0 4.65625 0 Z M 4.65625 0 "/></g></g></g><g fill="#000000" fill-opacity="1"><g transform="translate(178.679238, 229.032055)"><g/></g></g><g fill="#000000" fill-opacity="1"><g transform="translate(182.057339, 229.032055)"><g><path d="M 3.140625 0 L 0.5625 0 C 0.488281 0 0.453125 -0.0351562 0.453125 -0.109375 L 0.453125 -0.59375 C 0.453125 -0.664062 0.488281 -0.703125 0.5625 -0.703125 L 1.28125 -0.703125 L 1.28125 -5.984375 L 0.5625 -5.984375 C 0.488281 -5.984375 0.453125 -6.019531 0.453125 -6.09375 L 0.453125 -6.578125 C 0.453125 -6.648438 0.488281 -6.6875 0.5625 -6.6875 L 5.34375 -6.6875 C 5.425781 -6.6875 5.46875 -6.648438 5.46875 -6.578125 L 5.46875 -5.078125 C 5.46875 -4.992188 5.425781 -4.953125 5.34375 -4.953125 L 4.84375 -4.953125 C 4.769531 -4.953125 4.734375 -4.992188 4.734375 -5.078125 L 4.734375 -5.984375 L 2.09375 -5.984375 L 2.09375 -3.671875 L 4.28125 -3.671875 C 4.351562 -3.671875 4.390625 -3.632812 4.390625 -3.5625 L 4.390625 -3.09375 C 4.390625 -3.019531 4.351562 -2.984375 4.28125 -2.984375 L 2.09375 -2.984375 L 2.09375 -0.703125 L 3.140625 -0.703125 C 3.210938 -0.703125 3.25 -0.664062 3.25 -0.59375 L 3.25 -0.109375 C 3.25 -0.0351562 3.210938 0 3.140625 0 Z M 3.140625 0 "/></g></g></g><g fill="#000000" fill-opacity="1"><g transform="translate(188.431572, 229.032055)"><g><path d="M 6.921875 -3.375 C 6.921875 -2.351562 6.613281 -1.523438 6 -0.890625 C 5.394531 -0.253906 4.628906 0.0625 3.703125 0.0625 C 2.773438 0.0625 2 -0.253906 1.375 -0.890625 C 0.757812 -1.535156 0.453125 -2.363281 0.453125 -3.375 C 0.453125 -4.394531 0.769531 -5.207031 1.40625 -5.8125 C 2.039062 -6.425781 2.800781 -6.734375 3.6875 -6.734375 C 4.582031 -6.734375 5.34375 -6.425781 5.96875 -5.8125 C 6.601562 -5.207031 6.921875 -4.394531 6.921875 -3.375 Z M 2.03125 -1.390625 C 2.507812 -0.921875 3.0625 -0.6875 3.6875 -0.6875 C 4.320312 -0.6875 4.875 -0.921875 5.34375 -1.390625 C 5.820312 -1.867188 6.0625 -2.519531 6.0625 -3.34375 C 6.0625 -4.175781 5.820312 -4.828125 5.34375 -5.296875 C 4.863281 -5.765625 4.316406 -6 3.703125 -6 C 3.085938 -6 2.535156 -5.765625 2.046875 -5.296875 C 1.566406 -4.828125 1.328125 -4.175781 1.328125 -3.34375 C 1.328125 -2.519531 1.5625 -1.867188 2.03125 -1.390625 Z M 2.03125 -1.390625 "/></g></g></g><g fill="#000000" fill-opacity="1"><g transform="translate(196.275958, 229.032055)"><g><path d="M 6.09375 0 L 5.296875 0 C 5.066406 0 4.878906 -0.148438 4.734375 -0.453125 L 3.859375 -2.21875 C 3.785156 -2.375 3.703125 -2.488281 3.609375 -2.5625 C 3.523438 -2.644531 3.410156 -2.6875 3.265625 -2.6875 L 2.09375 -2.6875 L 2.09375 -0.703125 L 2.921875 -0.703125 C 2.992188 -0.703125 3.03125 -0.664062 3.03125 -0.59375 L 3.03125 -0.109375 C 3.03125 -0.0351562 2.992188 0 2.921875 0 L 0.5625 0 C 0.488281 0 0.453125 -0.0351562 0.453125 -0.109375 L 0.453125 -0.59375 C 0.453125 -0.664062 0.488281 -0.703125 0.5625 -0.703125 L 1.28125 -0.703125 L 1.28125 -5.984375 L 0.5625 -5.984375 C 0.488281 -5.984375 0.453125 -6.019531 0.453125 -6.09375 L 0.453125 -6.578125 C 0.453125 -6.648438 0.488281 -6.6875 0.5625 -6.6875 L 3.4375 -6.6875 C 4.101562 -6.6875 4.644531 -6.507812 5.0625 -6.15625 C 5.476562 -5.8125 5.6875 -5.316406 5.6875 -4.671875 C 5.6875 -3.703125 5.226562 -3.09375 4.3125 -2.84375 C 4.425781 -2.75 4.570312 -2.539062 4.75 -2.21875 L 5.53125 -0.703125 L 6.09375 -0.703125 C 6.175781 -0.703125 6.21875 -0.664062 6.21875 -0.59375 L 6.21875 -0.109375 C 6.21875 -0.0351562 6.175781 0 6.09375 0 Z M 2.09375 -3.359375 L 3.28125 -3.359375 C 4.332031 -3.359375 4.859375 -3.785156 4.859375 -4.640625 C 4.859375 -5.535156 4.332031 -5.984375 3.28125 -5.984375 L 2.09375 -5.984375 Z M 2.09375 -3.359375 "/></g></g></g><g fill="#000000" fill-opacity="1"><g transform="translate(203.394572, 229.032055)"><g/></g></g><g fill="#000000" fill-opacity="1"><g transform="translate(206.772673, 229.032055)"><g><path d="M 3.140625 0 L 0.5625 0 C 0.488281 0 0.453125 -0.0351562 0.453125 -0.109375 L 0.453125 -0.59375 C 0.453125 -0.664062 0.488281 -0.703125 0.5625 -0.703125 L 1.28125 -0.703125 L 1.28125 -5.984375 L 0.5625 -5.984375 C 0.488281 -5.984375 0.453125 -6.019531 0.453125 -6.09375 L 0.453125 -6.578125 C 0.453125 -6.648438 0.488281 -6.6875 0.5625 -6.6875 L 5.34375 -6.6875 C 5.425781 -6.6875 5.46875 -6.648438 5.46875 -6.578125 L 5.46875 -5.078125 C 5.46875 -4.992188 5.425781 -4.953125 5.34375 -4.953125 L 4.84375 -4.953125 C 4.769531 -4.953125 4.734375 -4.992188 4.734375 -5.078125 L 4.734375 -5.984375 L 2.09375 -5.984375 L 2.09375 -3.671875 L 4.28125 -3.671875 C 4.351562 -3.671875 4.390625 -3.632812 4.390625 -3.5625 L 4.390625 -3.09375 C 4.390625 -3.019531 4.351562 -2.984375 4.28125 -2.984375 L 2.09375 -2.984375 L 2.09375 -0.703125 L 3.140625 -0.703125 C 3.210938 -0.703125 3.25 -0.664062 3.25 -0.59375 L 3.25 -0.109375 C 3.25 -0.0351562 3.210938 0 3.140625 0 Z M 3.140625 0 "/></g></g></g><g fill="#000000" fill-opacity="1"><g transform="translate(213.146906, 229.032055)"><g><path d="M 2.796875 0 L 0.5625 0 C 0.488281 0 0.453125 -0.0351562 0.453125 -0.109375 L 0.453125 -0.59375 C 0.453125 -0.664062 0.488281 -0.703125 0.5625 -0.703125 L 1.28125 -0.703125 L 1.28125 -5.984375 L 0.5625 -5.984375 C 0.488281 -5.984375 0.453125 -6.019531 0.453125 -6.09375 L 0.453125 -6.578125 C 0.453125 -6.648438 0.488281 -6.6875 0.5625 -6.6875 L 2.796875 -6.6875 C 2.878906 -6.6875 2.921875 -6.648438 2.921875 -6.578125 L 2.921875 -6.09375 C 2.921875 -6.019531 2.878906 -5.984375 2.796875 -5.984375 L 2.09375 -5.984375 L 2.09375 -0.703125 L 2.796875 -0.703125 C 2.878906 -0.703125 2.921875 -0.664062 2.921875 -0.59375 L 2.921875 -0.109375 C 2.921875 -0.0351562 2.878906 0 2.796875 0 Z M 2.796875 0 "/></g></g></g><g fill="#000000" fill-opacity="1"><g transform="translate(216.98094, 229.032055)"><g><path d="M 5.65625 0 L 0.5625 0 C 0.488281 0 0.453125 -0.0351562 0.453125 -0.109375 L 0.453125 -0.59375 C 0.453125 -0.664062 0.488281 -0.703125 0.5625 -0.703125 L 1.28125 -0.703125 L 1.28125 -5.984375 L 0.5625 -5.984375 C 0.488281 -5.984375 0.453125 -6.019531 0.453125 -6.09375 L 0.453125 -6.578125 C 0.453125 -6.648438 0.488281 -6.6875 0.5625 -6.6875 L 2.796875 -6.6875 C 2.878906 -6.6875 2.921875 -6.644531 2.921875 -6.5625 L 2.921875 -6.109375 C 2.921875 -6.023438 2.878906 -5.984375 2.796875 -5.984375 L 2.09375 -5.984375 L 2.09375 -0.703125 L 5.046875 -0.703125 L 5.046875 -1.609375 C 5.046875 -1.679688 5.085938 -1.71875 5.171875 -1.71875 L 5.671875 -1.71875 C 5.742188 -1.71875 5.78125 -1.679688 5.78125 -1.609375 L 5.78125 -0.125 C 5.78125 -0.0390625 5.738281 0 5.65625 0 Z M 5.65625 0 "/></g></g></g><g fill="#000000" fill-opacity="1"><g transform="translate(223.680837, 229.032055)"><g><path d="M 2.796875 0 L 0.5625 0 C 0.488281 0 0.453125 -0.0351562 0.453125 -0.109375 L 0.453125 -0.59375 C 0.453125 -0.664062 0.488281 -0.703125 0.5625 -0.703125 L 1.28125 -0.703125 L 1.28125 -5.984375 L 0.5625 -5.984375 C 0.488281 -5.984375 0.453125 -6.019531 0.453125 -6.09375 L 0.453125 -6.578125 C 0.453125 -6.648438 0.488281 -6.6875 0.5625 -6.6875 L 2.796875 -6.6875 C 2.878906 -6.6875 2.921875 -6.648438 2.921875 -6.578125 L 2.921875 -6.09375 C 2.921875 -6.019531 2.878906 -5.984375 2.796875 -5.984375 L 2.09375 -5.984375 L 2.09375 -0.703125 L 2.796875 -0.703125 C 2.878906 -0.703125 2.921875 -0.664062 2.921875 -0.59375 L 2.921875 -0.109375 C 2.921875 -0.0351562 2.878906 0 2.796875 0 Z M 2.796875 0 "/></g></g></g><g fill="#000000" fill-opacity="1"><g transform="translate(227.514871, 229.032055)"><g><path d="M 3 0 L 0.5625 0 C 0.488281 0 0.453125 -0.0351562 0.453125 -0.109375 L 0.453125 -0.59375 C 0.453125 -0.664062 0.488281 -0.703125 0.5625 -0.703125 L 1.28125 -0.703125 L 1.28125 -5.984375 L 0.5625 -5.984375 C 0.488281 -5.984375 0.453125 -6.019531 0.453125 -6.09375 L 0.453125 -6.578125 C 0.453125 -6.648438 0.488281 -6.6875 0.5625 -6.6875 L 3.4375 -6.6875 C 4.09375 -6.6875 4.628906 -6.492188 5.046875 -6.109375 C 5.472656 -5.734375 5.6875 -5.21875 5.6875 -4.5625 C 5.6875 -3.914062 5.476562 -3.414062 5.0625 -3.0625 C 4.65625 -2.707031 4.078125 -2.53125 3.328125 -2.53125 L 2.09375 -2.53125 L 2.09375 -0.703125 L 3 -0.703125 C 3.070312 -0.703125 3.109375 -0.664062 3.109375 -0.59375 L 3.109375 -0.109375 C 3.109375 -0.0351562 3.070312 0 3 0 Z M 2.09375 -3.1875 L 3.296875 -3.1875 C 4.335938 -3.1875 4.859375 -3.644531 4.859375 -4.5625 C 4.859375 -5.039062 4.707031 -5.394531 4.40625 -5.625 C 4.113281 -5.863281 3.75 -5.984375 3.3125 -5.984375 L 2.09375 -5.984375 Z M 2.09375 -3.1875 "/></g></g></g><g fill="#000000" fill-opacity="1"><g transform="translate(234.103097, 229.032055)"><g><path d="M 2.796875 0 L 0.5625 0 C 0.488281 0 0.453125 -0.0351562 0.453125 -0.109375 L 0.453125 -0.59375 C 0.453125 -0.664062 0.488281 -0.703125 0.5625 -0.703125 L 1.28125 -0.703125 L 1.28125 -5.984375 L 0.5625 -5.984375 C 0.488281 -5.984375 0.453125 -6.019531 0.453125 -6.09375 L 0.453125 -6.578125 C 0.453125 -6.648438 0.488281 -6.6875 0.5625 -6.6875 L 2.796875 -6.6875 C 2.878906 -6.6875 2.921875 -6.648438 2.921875 -6.578125 L 2.921875 -6.09375 C 2.921875 -6.019531 2.878906 -5.984375 2.796875 -5.984375 L 2.09375 -5.984375 L 2.09375 -0.703125 L 2.796875 -0.703125 C 2.878906 -0.703125 2.921875 -0.664062 2.921875 -0.59375 L 2.921875 -0.109375 C 2.921875 -0.0351562 2.878906 0 2.796875 0 Z M 2.796875 0 "/></g></g></g><g fill="#000000" fill-opacity="1"><g transform="translate(237.937119, 229.032055)"><g><path d="M 6.234375 0 L 5.734375 0 C 5.617188 0 5.523438 -0.0195312 5.453125 -0.0625 C 5.390625 -0.113281 5.328125 -0.1875 5.265625 -0.28125 L 2.5625 -4.5 L 2.109375 -5.28125 L 2.09375 -5.28125 L 2.09375 -0.703125 L 2.796875 -0.703125 C 2.878906 -0.703125 2.921875 -0.664062 2.921875 -0.59375 L 2.921875 -0.109375 C 2.921875 -0.0351562 2.878906 0 2.796875 0 L 0.5625 0 C 0.488281 0 0.453125 -0.0351562 0.453125 -0.109375 L 0.453125 -0.59375 C 0.453125 -0.664062 0.488281 -0.703125 0.5625 -0.703125 L 1.28125 -0.703125 L 1.28125 -5.984375 L 0.5625 -5.984375 C 0.488281 -5.984375 0.453125 -6.019531 0.453125 -6.09375 L 0.453125 -6.578125 C 0.453125 -6.648438 0.488281 -6.6875 0.5625 -6.6875 L 1.875 -6.6875 C 2.050781 -6.6875 2.207031 -6.582031 2.34375 -6.375 L 5 -2.21875 L 5.53125 -1.3125 L 5.546875 -1.3125 L 5.546875 -5.984375 L 4.828125 -5.984375 C 4.753906 -5.984375 4.71875 -6.019531 4.71875 -6.09375 L 4.71875 -6.578125 C 4.71875 -6.648438 4.753906 -6.6875 4.828125 -6.6875 L 7.078125 -6.6875 C 7.148438 -6.6875 7.1875 -6.648438 7.1875 -6.578125 L 7.1875 -6.09375 C 7.1875 -6.019531 7.148438 -5.984375 7.078125 -5.984375 L 6.359375 -5.984375 L 6.359375 -0.109375 C 6.359375 -0.0351562 6.316406 0 6.234375 0 Z M 6.234375 0 "/></g></g></g><g fill="#000000" fill-opacity="1"><g transform="translate(246.032715, 229.032055)"><g><path d="M 6.921875 -3.375 C 6.921875 -2.351562 6.613281 -1.523438 6 -0.890625 C 5.394531 -0.253906 4.628906 0.0625 3.703125 0.0625 C 2.773438 0.0625 2 -0.253906 1.375 -0.890625 C 0.757812 -1.535156 0.453125 -2.363281 0.453125 -3.375 C 0.453125 -4.394531 0.769531 -5.207031 1.40625 -5.8125 C 2.039062 -6.425781 2.800781 -6.734375 3.6875 -6.734375 C 4.582031 -6.734375 5.34375 -6.425781 5.96875 -5.8125 C 6.601562 -5.207031 6.921875 -4.394531 6.921875 -3.375 Z M 2.03125 -1.390625 C 2.507812 -0.921875 3.0625 -0.6875 3.6875 -0.6875 C 4.320312 -0.6875 4.875 -0.921875 5.34375 -1.390625 C 5.820312 -1.867188 6.0625 -2.519531 6.0625 -3.34375 C 6.0625 -4.175781 5.820312 -4.828125 5.34375 -5.296875 C 4.863281 -5.765625 4.316406 -6 3.703125 -6 C 3.085938 -6 2.535156 -5.765625 2.046875 -5.296875 C 1.566406 -4.828125 1.328125 -4.175781 1.328125 -3.34375 C 1.328125 -2.519531 1.5625 -1.867188 2.03125 -1.390625 Z M 2.03125 -1.390625 "/></g></g></g><g fill="#000000" fill-opacity="1"><g transform="translate(253.87709, 229.032055)"><g/></g></g><g fill="#000000" fill-opacity="1"><g transform="translate(257.25518, 229.032055)"><g><path d="M 3.140625 0 L 0.5625 0 C 0.488281 0 0.453125 -0.0351562 0.453125 -0.109375 L 0.453125 -0.59375 C 0.453125 -0.664062 0.488281 -0.703125 0.5625 -0.703125 L 1.28125 -0.703125 L 1.28125 -5.984375 L 0.5625 -5.984375 C 0.488281 -5.984375 0.453125 -6.019531 0.453125 -6.09375 L 0.453125 -6.578125 C 0.453125 -6.648438 0.488281 -6.6875 0.5625 -6.6875 L 5.34375 -6.6875 C 5.425781 -6.6875 5.46875 -6.648438 5.46875 -6.578125 L 5.46875 -5.078125 C 5.46875 -4.992188 5.425781 -4.953125 5.34375 -4.953125 L 4.84375 -4.953125 C 4.769531 -4.953125 4.734375 -4.992188 4.734375 -5.078125 L 4.734375 -5.984375 L 2.09375 -5.984375 L 2.09375 -3.671875 L 4.28125 -3.671875 C 4.351562 -3.671875 4.390625 -3.632812 4.390625 -3.5625 L 4.390625 -3.09375 C 4.390625 -3.019531 4.351562 -2.984375 4.28125 -2.984375 L 2.09375 -2.984375 L 2.09375 -0.703125 L 3.140625 -0.703125 C 3.210938 -0.703125 3.25 -0.664062 3.25 -0.59375 L 3.25 -0.109375 C 3.25 -0.0351562 3.210938 0 3.140625 0 Z M 3.140625 0 "/></g></g></g><g fill="#000000" fill-opacity="1"><g transform="translate(263.629401, 229.032055)"><g><path d="M 6.09375 0 L 5.296875 0 C 5.066406 0 4.878906 -0.148438 4.734375 -0.453125 L 3.859375 -2.21875 C 3.785156 -2.375 3.703125 -2.488281 3.609375 -2.5625 C 3.523438 -2.644531 3.410156 -2.6875 3.265625 -2.6875 L 2.09375 -2.6875 L 2.09375 -0.703125 L 2.921875 -0.703125 C 2.992188 -0.703125 3.03125 -0.664062 3.03125 -0.59375 L 3.03125 -0.109375 C 3.03125 -0.0351562 2.992188 0 2.921875 0 L 0.5625 0 C 0.488281 0 0.453125 -0.0351562 0.453125 -0.109375 L 0.453125 -0.59375 C 0.453125 -0.664062 0.488281 -0.703125 0.5625 -0.703125 L 1.28125 -0.703125 L 1.28125 -5.984375 L 0.5625 -5.984375 C 0.488281 -5.984375 0.453125 -6.019531 0.453125 -6.09375 L 0.453125 -6.578125 C 0.453125 -6.648438 0.488281 -6.6875 0.5625 -6.6875 L 3.4375 -6.6875 C 4.101562 -6.6875 4.644531 -6.507812 5.0625 -6.15625 C 5.476562 -5.8125 5.6875 -5.316406 5.6875 -4.671875 C 5.6875 -3.703125 5.226562 -3.09375 4.3125 -2.84375 C 4.425781 -2.75 4.570312 -2.539062 4.75 -2.21875 L 5.53125 -0.703125 L 6.09375 -0.703125 C 6.175781 -0.703125 6.21875 -0.664062 6.21875 -0.59375 L 6.21875 -0.109375 C 6.21875 -0.0351562 6.175781 0 6.09375 0 Z M 2.09375 -3.359375 L 3.28125 -3.359375 C 4.332031 -3.359375 4.859375 -3.785156 4.859375 -4.640625 C 4.859375 -5.535156 4.332031 -5.984375 3.28125 -5.984375 L 2.09375 -5.984375 Z M 2.09375 -3.359375 "/></g></g></g><g fill="#000000" fill-opacity="1"><g transform="translate(270.748015, 229.032055)"><g><path d="M 5.515625 0 L 0.5625 0 C 0.488281 0 0.453125 -0.0351562 0.453125 -0.109375 L 0.453125 -0.59375 C 0.453125 -0.664062 0.488281 -0.703125 0.5625 -0.703125 L 1.28125 -0.703125 L 1.28125 -5.984375 L 0.5625 -5.984375 C 0.488281 -5.984375 0.453125 -6.019531 0.453125 -6.09375 L 0.453125 -6.578125 C 0.453125 -6.648438 0.488281 -6.6875 0.5625 -6.6875 L 5.515625 -6.6875 C 5.597656 -6.6875 5.640625 -6.648438 5.640625 -6.578125 L 5.640625 -5.078125 C 5.640625 -4.992188 5.597656 -4.953125 5.515625 -4.953125 L 5.015625 -4.953125 C 4.929688 -4.953125 4.890625 -4.992188 4.890625 -5.078125 L 4.890625 -5.984375 L 2.09375 -5.984375 L 2.09375 -3.671875 L 4.4375 -3.671875 C 4.519531 -3.671875 4.5625 -3.632812 4.5625 -3.5625 L 4.5625 -3.09375 C 4.5625 -3.019531 4.519531 -2.984375 4.4375 -2.984375 L 2.09375 -2.984375 L 2.09375 -0.703125 L 4.890625 -0.703125 L 4.890625 -1.609375 C 4.890625 -1.679688 4.929688 -1.71875 5.015625 -1.71875 L 5.515625 -1.71875 C 5.597656 -1.71875 5.640625 -1.679688 5.640625 -1.609375 L 5.640625 -0.109375 C 5.640625 -0.0351562 5.597656 0 5.515625 0 Z M 5.515625 0 "/></g></g></g><g fill="#000000" fill-opacity="1"><g transform="translate(277.289732, 229.032055)"><g><path d="M 5.515625 0 L 0.5625 0 C 0.488281 0 0.453125 -0.0351562 0.453125 -0.109375 L 0.453125 -0.59375 C 0.453125 -0.664062 0.488281 -0.703125 0.5625 -0.703125 L 1.28125 -0.703125 L 1.28125 -5.984375 L 0.5625 -5.984375 C 0.488281 -5.984375 0.453125 -6.019531 0.453125 -6.09375 L 0.453125 -6.578125 C 0.453125 -6.648438 0.488281 -6.6875 0.5625 -6.6875 L 5.515625 -6.6875 C 5.597656 -6.6875 5.640625 -6.648438 5.640625 -6.578125 L 5.640625 -5.078125 C 5.640625 -4.992188 5.597656 -4.953125 5.515625 -4.953125 L 5.015625 -4.953125 C 4.929688 -4.953125 4.890625 -4.992188 4.890625 -5.078125 L 4.890625 -5.984375 L 2.09375 -5.984375 L 2.09375 -3.671875 L 4.4375 -3.671875 C 4.519531 -3.671875 4.5625 -3.632812 4.5625 -3.5625 L 4.5625 -3.09375 C 4.5625 -3.019531 4.519531 -2.984375 4.4375 -2.984375 L 2.09375 -2.984375 L 2.09375 -0.703125 L 4.890625 -0.703125 L 4.890625 -1.609375 C 4.890625 -1.679688 4.929688 -1.71875 5.015625 -1.71875 L 5.515625 -1.71875 C 5.597656 -1.71875 5.640625 -1.679688 5.640625 -1.609375 L 5.640625 -0.109375 C 5.640625 -0.0351562 5.597656 0 5.515625 0 Z M 5.515625 0 "/></g></g></g><g fill="#000000" fill-opacity="1"><g transform="translate(283.831449, 229.032055)"><g><path d="M 5.65625 0 L 0.5625 0 C 0.488281 0 0.453125 -0.0351562 0.453125 -0.109375 L 0.453125 -0.59375 C 0.453125 -0.664062 0.488281 -0.703125 0.5625 -0.703125 L 1.28125 -0.703125 L 1.28125 -5.984375 L 0.5625 -5.984375 C 0.488281 -5.984375 0.453125 -6.019531 0.453125 -6.09375 L 0.453125 -6.578125 C 0.453125 -6.648438 0.488281 -6.6875 0.5625 -6.6875 L 2.796875 -6.6875 C 2.878906 -6.6875 2.921875 -6.644531 2.921875 -6.5625 L 2.921875 -6.109375 C 2.921875 -6.023438 2.878906 -5.984375 2.796875 -5.984375 L 2.09375 -5.984375 L 2.09375 -0.703125 L 5.046875 -0.703125 L 5.046875 -1.609375 C 5.046875 -1.679688 5.085938 -1.71875 5.171875 -1.71875 L 5.671875 -1.71875 C 5.742188 -1.71875 5.78125 -1.679688 5.78125 -1.609375 L 5.78125 -0.125 C 5.78125 -0.0390625 5.738281 0 5.65625 0 Z M 5.65625 0 "/></g></g></g><g fill="#000000" fill-opacity="1"><g transform="translate(290.531346, 229.032055)"><g><path d="M 7.15625 0 L 5.046875 0 C 4.972656 0 4.9375 -0.0351562 4.9375 -0.109375 L 4.9375 -0.59375 C 4.9375 -0.664062 4.972656 -0.703125 5.046875 -0.703125 L 5.703125 -0.703125 L 5.09375 -2.3125 L 2.5 -2.3125 L 1.890625 -0.703125 L 2.546875 -0.703125 C 2.617188 -0.703125 2.65625 -0.664062 2.65625 -0.59375 L 2.65625 -0.109375 C 2.65625 -0.0351562 2.617188 0 2.546875 0 L 0.453125 0 C 0.367188 0 0.328125 -0.0351562 0.328125 -0.109375 L 0.328125 -0.59375 C 0.328125 -0.664062 0.367188 -0.703125 0.453125 -0.703125 L 1.078125 -0.703125 L 3.078125 -5.984375 L 2.5625 -5.984375 C 2.488281 -5.984375 2.453125 -6.019531 2.453125 -6.09375 L 2.453125 -6.578125 C 2.453125 -6.648438 2.488281 -6.6875 2.5625 -6.6875 L 3.84375 -6.6875 C 3.988281 -6.6875 4.097656 -6.65625 4.171875 -6.59375 C 4.253906 -6.53125 4.320312 -6.425781 4.375 -6.28125 L 6.515625 -0.703125 L 7.15625 -0.703125 C 7.226562 -0.703125 7.265625 -0.664062 7.265625 -0.59375 L 7.265625 -0.109375 C 7.265625 -0.0351562 7.226562 0 7.15625 0 Z M 4.84375 -2.953125 L 3.8125 -5.71875 L 3.78125 -5.71875 L 2.734375 -2.953125 Z M 4.84375 -2.953125 "/></g></g></g><g fill="#000000" fill-opacity="1"><g transform="translate(298.822361, 229.032055)"><g><path d="M 6.234375 0 L 5.734375 0 C 5.617188 0 5.523438 -0.0195312 5.453125 -0.0625 C 5.390625 -0.113281 5.328125 -0.1875 5.265625 -0.28125 L 2.5625 -4.5 L 2.109375 -5.28125 L 2.09375 -5.28125 L 2.09375 -0.703125 L 2.796875 -0.703125 C 2.878906 -0.703125 2.921875 -0.664062 2.921875 -0.59375 L 2.921875 -0.109375 C 2.921875 -0.0351562 2.878906 0 2.796875 0 L 0.5625 0 C 0.488281 0 0.453125 -0.0351562 0.453125 -0.109375 L 0.453125 -0.59375 C 0.453125 -0.664062 0.488281 -0.703125 0.5625 -0.703125 L 1.28125 -0.703125 L 1.28125 -5.984375 L 0.5625 -5.984375 C 0.488281 -5.984375 0.453125 -6.019531 0.453125 -6.09375 L 0.453125 -6.578125 C 0.453125 -6.648438 0.488281 -6.6875 0.5625 -6.6875 L 1.875 -6.6875 C 2.050781 -6.6875 2.207031 -6.582031 2.34375 -6.375 L 5 -2.21875 L 5.53125 -1.3125 L 5.546875 -1.3125 L 5.546875 -5.984375 L 4.828125 -5.984375 C 4.753906 -5.984375 4.71875 -6.019531 4.71875 -6.09375 L 4.71875 -6.578125 C 4.71875 -6.648438 4.753906 -6.6875 4.828125 -6.6875 L 7.078125 -6.6875 C 7.148438 -6.6875 7.1875 -6.648438 7.1875 -6.578125 L 7.1875 -6.09375 C 7.1875 -6.019531 7.148438 -5.984375 7.078125 -5.984375 L 6.359375 -5.984375 L 6.359375 -0.109375 C 6.359375 -0.0351562 6.316406 0 6.234375 0 Z M 6.234375 0 "/></g></g></g><g fill="#000000" fill-opacity="1"><g transform="translate(306.917957, 229.032055)"><g><path d="M 6.484375 -1.6875 C 6.515625 -1.65625 6.53125 -1.625 6.53125 -1.59375 C 6.53125 -1.5625 6.515625 -1.515625 6.484375 -1.453125 C 6.460938 -1.398438 6.421875 -1.320312 6.359375 -1.21875 C 6.296875 -1.125 6.175781 -0.992188 6 -0.828125 C 5.832031 -0.660156 5.648438 -0.515625 5.453125 -0.390625 C 5.253906 -0.273438 4.992188 -0.171875 4.671875 -0.078125 C 4.347656 0.015625 4 0.0625 3.625 0.0625 C 2.71875 0.0625 1.960938 -0.25 1.359375 -0.875 C 0.753906 -1.507812 0.453125 -2.34375 0.453125 -3.375 C 0.453125 -4.40625 0.753906 -5.222656 1.359375 -5.828125 C 1.972656 -6.429688 2.710938 -6.734375 3.578125 -6.734375 C 4.535156 -6.734375 5.234375 -6.40625 5.671875 -5.75 L 5.65625 -6.578125 C 5.644531 -6.648438 5.6875 -6.6875 5.78125 -6.6875 L 6.296875 -6.6875 C 6.378906 -6.6875 6.421875 -6.648438 6.421875 -6.578125 L 6.421875 -4.546875 C 6.421875 -4.460938 6.378906 -4.421875 6.296875 -4.421875 L 5.703125 -4.421875 C 5.628906 -4.421875 5.59375 -4.460938 5.59375 -4.546875 L 5.59375 -4.625 C 5.59375 -4.914062 5.398438 -5.210938 5.015625 -5.515625 C 4.628906 -5.828125 4.144531 -5.984375 3.5625 -5.984375 C 2.988281 -5.984375 2.46875 -5.753906 2 -5.296875 C 1.539062 -4.835938 1.3125 -4.191406 1.3125 -3.359375 C 1.3125 -2.523438 1.539062 -1.875 2 -1.40625 C 2.46875 -0.945312 3.019531 -0.71875 3.65625 -0.71875 C 4.332031 -0.71875 4.863281 -0.867188 5.25 -1.171875 C 5.550781 -1.410156 5.773438 -1.648438 5.921875 -1.890625 C 5.972656 -1.984375 6.03125 -2.003906 6.09375 -1.953125 Z M 6.484375 -1.6875 "/></g></g></g><g fill="#000000" fill-opacity="1"><g transform="translate(314.380832, 229.032055)"><g><path d="M 5.515625 0 L 0.5625 0 C 0.488281 0 0.453125 -0.0351562 0.453125 -0.109375 L 0.453125 -0.59375 C 0.453125 -0.664062 0.488281 -0.703125 0.5625 -0.703125 L 1.28125 -0.703125 L 1.28125 -5.984375 L 0.5625 -5.984375 C 0.488281 -5.984375 0.453125 -6.019531 0.453125 -6.09375 L 0.453125 -6.578125 C 0.453125 -6.648438 0.488281 -6.6875 0.5625 -6.6875 L 5.515625 -6.6875 C 5.597656 -6.6875 5.640625 -6.648438 5.640625 -6.578125 L 5.640625 -5.078125 C 5.640625 -4.992188 5.597656 -4.953125 5.515625 -4.953125 L 5.015625 -4.953125 C 4.929688 -4.953125 4.890625 -4.992188 4.890625 -5.078125 L 4.890625 -5.984375 L 2.09375 -5.984375 L 2.09375 -3.671875 L 4.4375 -3.671875 C 4.519531 -3.671875 4.5625 -3.632812 4.5625 -3.5625 L 4.5625 -3.09375 C 4.5625 -3.019531 4.519531 -2.984375 4.4375 -2.984375 L 2.09375 -2.984375 L 2.09375 -0.703125 L 4.890625 -0.703125 L 4.890625 -1.609375 C 4.890625 -1.679688 4.929688 -1.71875 5.015625 -1.71875 L 5.515625 -1.71875 C 5.597656 -1.71875 5.640625 -1.679688 5.640625 -1.609375 L 5.640625 -0.109375 C 5.640625 -0.0351562 5.597656 0 5.515625 0 Z M 5.515625 0 "/></g></g></g><g fill="#000000" fill-opacity="1"><g transform="translate(320.922549, 229.032055)"><g><path d="M 6.09375 0 L 5.296875 0 C 5.066406 0 4.878906 -0.148438 4.734375 -0.453125 L 3.859375 -2.21875 C 3.785156 -2.375 3.703125 -2.488281 3.609375 -2.5625 C 3.523438 -2.644531 3.410156 -2.6875 3.265625 -2.6875 L 2.09375 -2.6875 L 2.09375 -0.703125 L 2.921875 -0.703125 C 2.992188 -0.703125 3.03125 -0.664062 3.03125 -0.59375 L 3.03125 -0.109375 C 3.03125 -0.0351562 2.992188 0 2.921875 0 L 0.5625 0 C 0.488281 0 0.453125 -0.0351562 0.453125 -0.109375 L 0.453125 -0.59375 C 0.453125 -0.664062 0.488281 -0.703125 0.5625 -0.703125 L 1.28125 -0.703125 L 1.28125 -5.984375 L 0.5625 -5.984375 C 0.488281 -5.984375 0.453125 -6.019531 0.453125 -6.09375 L 0.453125 -6.578125 C 0.453125 -6.648438 0.488281 -6.6875 0.5625 -6.6875 L 3.4375 -6.6875 C 4.101562 -6.6875 4.644531 -6.507812 5.0625 -6.15625 C 5.476562 -5.8125 5.6875 -5.316406 5.6875 -4.671875 C 5.6875 -3.703125 5.226562 -3.09375 4.3125 -2.84375 C 4.425781 -2.75 4.570312 -2.539062 4.75 -2.21875 L 5.53125 -0.703125 L 6.09375 -0.703125 C 6.175781 -0.703125 6.21875 -0.664062 6.21875 -0.59375 L 6.21875 -0.109375 C 6.21875 -0.0351562 6.175781 0 6.09375 0 Z M 2.09375 -3.359375 L 3.28125 -3.359375 C 4.332031 -3.359375 4.859375 -3.785156 4.859375 -4.640625 C 4.859375 -5.535156 4.332031 -5.984375 3.28125 -5.984375 L 2.09375 -5.984375 Z M 2.09375 -3.359375 "/></g></g></g><g fill="#000000" fill-opacity="1"><g transform="translate(328.041163, 229.032055)"><g><path d="M 1.09375 0 L 0.5625 0 C 0.488281 0 0.453125 -0.0351562 0.453125 -0.109375 L 0.453125 -2.296875 C 0.453125 -2.367188 0.488281 -2.40625 0.5625 -2.40625 L 1.15625 -2.40625 C 1.226562 -2.40625 1.265625 -2.367188 1.265625 -2.296875 L 1.265625 -2.09375 C 1.265625 -1.976562 1.332031 -1.820312 1.46875 -1.625 C 1.613281 -1.425781 1.757812 -1.265625 1.90625 -1.140625 C 2.050781 -1.015625 2.242188 -0.90625 2.484375 -0.8125 C 2.722656 -0.726562 2.984375 -0.6875 3.265625 -0.6875 C 3.734375 -0.6875 4.101562 -0.785156 4.375 -0.984375 C 4.644531 -1.179688 4.78125 -1.457031 4.78125 -1.8125 C 4.78125 -2.019531 4.703125 -2.195312 4.546875 -2.34375 C 4.398438 -2.488281 4.207031 -2.601562 3.96875 -2.6875 C 3.726562 -2.78125 3.457031 -2.863281 3.15625 -2.9375 C 2.863281 -3.007812 2.566406 -3.09375 2.265625 -3.1875 C 1.972656 -3.28125 1.707031 -3.394531 1.46875 -3.53125 C 1.226562 -3.664062 1.03125 -3.851562 0.875 -4.09375 C 0.726562 -4.332031 0.65625 -4.613281 0.65625 -4.9375 C 0.65625 -5.457031 0.847656 -5.882812 1.234375 -6.21875 C 1.628906 -6.5625 2.160156 -6.734375 2.828125 -6.734375 C 3.671875 -6.734375 4.285156 -6.488281 4.671875 -6 L 4.65625 -6.578125 C 4.65625 -6.660156 4.695312 -6.703125 4.78125 -6.703125 L 5.296875 -6.703125 C 5.367188 -6.703125 5.40625 -6.660156 5.40625 -6.578125 L 5.40625 -4.546875 C 5.40625 -4.472656 5.367188 -4.4375 5.296875 -4.4375 L 4.71875 -4.4375 C 4.632812 -4.4375 4.59375 -4.472656 4.59375 -4.546875 L 4.59375 -4.8125 C 4.59375 -5.070312 4.453125 -5.332031 4.171875 -5.59375 C 3.890625 -5.851562 3.472656 -5.984375 2.921875 -5.984375 C 2.503906 -5.984375 2.171875 -5.882812 1.921875 -5.6875 C 1.671875 -5.488281 1.546875 -5.238281 1.546875 -4.9375 C 1.546875 -4.71875 1.625 -4.53125 1.78125 -4.375 C 1.9375 -4.21875 2.132812 -4.09375 2.375 -4 C 2.625 -3.90625 2.898438 -3.816406 3.203125 -3.734375 C 3.503906 -3.660156 3.800781 -3.578125 4.09375 -3.484375 C 4.394531 -3.398438 4.671875 -3.289062 4.921875 -3.15625 C 5.171875 -3.03125 5.367188 -2.851562 5.515625 -2.625 C 5.671875 -2.394531 5.75 -2.125 5.75 -1.8125 C 5.75 -1.269531 5.550781 -0.820312 5.15625 -0.46875 C 4.769531 -0.113281 4.191406 0.0625 3.421875 0.0625 C 2.847656 0.0625 2.375 -0.0507812 2 -0.28125 C 1.625 -0.507812 1.351562 -0.757812 1.1875 -1.03125 L 1.203125 -0.109375 C 1.203125 -0.0351562 1.164062 0 1.09375 0 Z M 1.09375 0 "/></g></g></g></svg>